# xmcd
#
# Track frame offsets:
#	150
#	20170
#	33352
#	47865
#	58894
#	72990
#	87176
#	99944
#	113569
#	129533
#	147558
#	157268
#	176437
#	193903
#	213951
#
# Disc length: 3128 seconds
#
# Revision: 0
# Processed by: cddbd v1.5.2PL0 Copyright (c) Steve Scherf et al.
# Submitted via: EasyCDDAExtractor 11.0.0.1
#
DISCID=de0c360f
DTITLE=Jan Vycital - Buh mi seslal krasny rano
DYEAR=2009
DGENRE=Country
TTITLE0=Buh mi seslal krany rano
TTITLE1=California blues
TTITLE2=Chlapum neslusi moc plac
TTITLE3=Hodne stene
TTITLE4=Beale Street Blues
TTITLE5=Nikdy never happyendum
TTITLE6=List z kalendare
TTITLE7=Kdy je cas jit spat
TTITLE8=Divka ze severni zeme
TTITLE9=Prazdna plaz
TTITLE10=U konce
TTITLE11=Patrona z valky
TTITLE12=Jsem vecne smutnej
TTITLE13=Kolikrat uz ...?
TTITLE14=Veci se meni
EXTD=
EXTT0=
EXTT1=
EXTT2=
EXTT3=
EXTT4=
EXTT5=
EXTT6=
EXTT7=
EXTT8=
EXTT9=
EXTT10=
EXTT11=
EXTT12=
EXTT13=
EXTT14=
PLAYORDER=
